<svg xmlns="http://www.w3.org/2000/svg" version="1.1" xmlns:xlink="http://www.w3.org/1999/xlink" xmlns:svgjs="http://svgjs.dev/svgjs" width="100%" height="100%" viewBox="0 0 1000 600"><rect width="1000" height="600" x="0" y="0" fill="#1e1e2e"/><g><rect width="333.3333333333333" height="333.3333333333333" rx="13.333333333333334" ry="13.333333333333334" y="77.77780045403293" fill="#1e1e2e" transform="matrix(2.25000013732911,0,0,2.25000013732911,0,-250.00003738403575)" x="55.555564880371094"/><path d="M157.9236548776591 318.15367527125125L157.9236548776591 318.15367527125125Q157.9236548776591 315.1218564853082 158.1337809321304 312.84048789390545Q158.34390698660172 310.5891373102843 159.00430315779724 308.8480928589506L159.00430315779724 308.8480928589506Q164.82779666743062 308.42784075000793 168.06974150784504 306.80686832980075Q171.31168634825949 305.18589590959357 172.63247869065054 301.16348286685707Q173.92325302526 297.17108783190224 173.92325302526 290.0568199876594L173.92325302526 290.0568199876594L173.92325302526 198.83209433933084Q173.92325302526 191.4776824328351 172.63247869065054 187.60535942900677Q171.31168634825949 183.70301841739675 168.06974150784504 181.99199197384473Q164.82779666743062 180.250947522511 159.00430315779724 180.04082146803972L159.00430315779724 180.04082146803972Q158.34390698660172 178.29977701670606 158.1337809321304 175.92835440195847Q157.9236548776591 173.55693178721083 157.9236548776591 170.735239055739L157.9236548776591 170.735239055739Q162.0361219437404 170.94536511021033 166.2386430331665 171.06543714133676Q170.47118213037425 171.18550917246324 175.00390130539816 171.2755631958081Q179.53662048042207 171.39563522693453 184.06933965544593 171.39563522693453L184.06933965544593 171.39563522693453Q188.84220289272278 171.39563522693453 193.16479601327535 171.2755631958081Q197.48738913382795 171.18550917246324 201.6899102232541 171.06543714133676Q205.89243131268023 170.94536511021033 210.2150244332328 170.735239055739L210.2150244332328 170.735239055739Q210.2150244332328 173.55693178721083 210.00489837876148 175.92835440195847Q209.79477232429016 178.29977701670606 209.13437615309465 180.04082146803972L209.13437615309465 180.04082146803972Q203.52100869793261 180.250947522511 200.18900983417333 181.99199197384473Q196.8269929626324 183.70301841739675 195.53621862802297 187.60535942900677Q194.2454442934135 191.4776824328351 194.2454442934135 198.83209433933084L194.2454442934135 198.83209433933084L194.2454442934135 290.0568199876594Q194.2454442934135 297.17108783190224 195.53621862802297 301.16348286685707Q196.8269929626324 305.18589590959357 200.18900983417333 306.80686832980075Q203.52100869793261 308.42784075000793 209.13437615309465 308.8480928589506L209.13437615309465 308.8480928589506Q209.79477232429016 310.5891373102843 210.00489837876148 312.84048789390545Q210.2150244332328 315.1218564853082 210.2150244332328 318.15367527125125L210.2150244332328 318.15367527125125Q203.73113475240393 317.7034051545271 197.03711901710372 317.6133511311822Q190.34310328180354 317.4932791000557 184.06933965544593 317.4932791000557L184.06933965544593 317.4932791000557Q177.79557602908838 317.4932791000557 170.68130818484556 317.6133511311822Q163.53702233282115 317.7034051545271 157.9236548776591 318.15367527125125ZM71.6819185210786 318.15367527125125L71.6819185210786 318.15367527125125Q71.6819185210786 315.1218564853082 71.8920445755499 312.84048789390545Q72.13218863780283 310.5891373102843 72.76256680121675 308.8480928589506L72.76256680121675 308.8480928589506Q78.61607831863171 308.42784075000793 81.85802315904616 306.80686832980075Q85.0999679994606 305.18589590959357 86.39074233407005 301.16348286685707Q87.6815166686795 297.17108783190224 87.6815166686795 290.0568199876594L87.6815166686795 290.0568199876594L87.6815166686795 198.83209433933084Q87.6815166686795 191.4776824328351 86.39074233407005 187.60535942900677Q85.0999679994606 183.70301841739675 81.85802315904616 181.99199197384473Q78.61607831863171 180.250947522511 72.76256680121675 180.04082146803972L72.76256680121675 180.04082146803972Q72.13218863780283 178.29977701670606 71.8920445755499 175.92835440195847Q71.6819185210786 173.55693178721083 71.6819185210786 170.735239055739L71.6819185210786 170.735239055739Q75.7943855871599 170.94536511021033 79.99690667658601 171.06543714133676Q84.22944577379377 171.18550917246324 88.76216494881766 171.2755631958081Q93.29488412384156 171.39563522693453 97.82760329886545 171.39563522693453L97.82760329886545 171.39563522693453Q102.60046653614228 171.39563522693453 106.92305965669485 171.2755631958081Q111.24565277724744 171.18550917246324 115.44817386667359 171.06543714133676Q119.68071296388132 170.94536511021033 124.00330608443392 170.735239055739L124.00330608443392 170.735239055739Q124.00330608443392 173.55693178721083 123.76316202218098 175.92835440195847Q123.55303596770969 178.29977701670606 122.92265780429577 180.04082146803972L122.92265780429577 180.04082146803972Q117.2792723413521 180.250947522511 113.94727347759282 181.99199197384473Q110.5852566060519 183.70301841739675 109.29448227144246 187.60535942900677Q108.003707936833 191.4776824328351 108.003707936833 198.83209433933084L108.003707936833 198.83209433933084L108.003707936833 290.0568199876594Q108.003707936833 297.17108783190224 109.29448227144246 301.16348286685707Q110.5852566060519 305.18589590959357 113.94727347759282 306.80686832980075Q117.2792723413521 308.42784075000793 122.92265780429577 308.8480928589506L122.92265780429577 308.8480928589506Q123.55303596770969 310.5891373102843 123.76316202218098 312.84048789390545Q124.00330608443392 315.1218564853082 124.00330608443392 318.15367527125125L124.00330608443392 318.15367527125125Q117.51941640360502 317.7034051545271 110.79538266052322 317.6133511311822Q104.10136692522303 317.4932791000557 97.82760329886545 317.4932791000557L97.82760329886545 317.4932791000557Q91.58385768028948 317.4932791000557 84.43957182826506 317.6133511311822Q77.29528597624065 317.7034051545271 71.6819185210786 318.15367527125125ZM106.92305965669485 248.54191522568564L106.92305965669485 248.54191522568564L106.92305965669485 237.94555847877544L175.00390130539816 237.94555847877544L175.00390130539816 247.25114089107612Q168.94026373351187 247.25114089107612 159.87482538346407 247.25114089107612Q150.77936902563468 247.25114089107612 140.9634804810465 247.3712129222026Q131.1175739286767 247.46126694554746 122.14218960197377 247.79146503114524Q113.19682328305244 248.121663116743 106.92305965669485 248.54191522568564ZM301.2296240270901 319.44444960586077L301.2296240270901 319.44444960586077Q279.82678447879846 319.44444960586077 263.8271863311976 309.50848903014617Q247.82758818359667 299.5425104466499 238.8522038568937 282.49228202669246Q229.90683753797236 265.41203559895337 229.90683753797236 244.0091960506617L229.90683753797236 244.0091960506617Q229.90683753797236 227.3792197396469 235.40013296200797 213.75104420679358Q240.92344639382515 200.1228686739403 250.6492809150685 190.18690809822564Q260.37511543631183 180.250947522511 273.3428947979695 174.8477061218203Q286.31067415962735 169.44446472112958 301.2296240270901 169.44446472112958L301.2296240270901 169.44446472112958Q321.9720674041862 169.44446472112958 338.061719575132 178.84010115677512Q354.1813897538593 188.23573759242063 363.4569541583784 204.98578593456196Q372.7625365706791 221.73583427670323 372.7625365706791 244.0091960506617L372.7625365706791 244.0091960506617Q372.7625365706791 260.00879419826265 367.5694212244597 273.7270237544608Q362.37630587824026 287.4452533106589 352.77054338812343 297.7114119719713Q343.1347628902249 307.9775706332837 330.0769295052223 313.7110101195723Q316.98907811243805 319.44444960586077 301.2296240270901 319.44444960586077ZM305.5522171476427 308.8480928589506L305.5522171476427 308.8480928589506Q319.60064478943866 308.8480928589506 329.62665938849807 300.9533568123858Q339.68269199533916 293.05862076582093 345.0859333960299 279.5505172640941Q350.4891747967206 266.04241376236723 350.4891747967206 249.62256350582376L350.4891747967206 249.62256350582376Q350.4891747967206 230.17089446333708 343.4649609758227 214.29136834686264Q336.4407471549247 198.4118422303882 324.3434900189337 189.10625981808752Q312.2462328829429 179.83069541356844 296.6668868442846 179.83069541356844L296.6668868442846 179.83069541356844Q283.93925154487977 179.83069541356844 273.8832189380387 187.06503528893765Q263.8271863311976 194.29937516430695 258.0036928215642 207.47728058043603Q252.15018130414924 220.6551859965651 252.15018130414924 238.18570254102835L252.15018130414924 238.18570254102835Q252.15018130414924 251.78386006610006 255.602252199035 264.54151337328653Q259.0843411017023 277.29916668047304 265.8684108603474 287.23512725618764Q272.682498626774 297.17108783190224 282.6184592024887 303.0245993493172Q292.58443778598496 308.8480928589506 305.5522171476427 308.8480928589506Z " fill="#cdd6f4" transform="matrix(2.25000013732911,0,0,2.25000013732911,0,-250.00003738403575)"/><path d="MNaN 244.4444580078119 " fill="#cdd6f4" transform="matrix(2.25000013732911,0,0,2.25000013732911,0,-250.00003738403575)"/></g></svg>